<svg id="Livello_1" data-name="Livello 1" xmlns="http://www.w3.org/2000/svg" viewBox="0 0 5347.52 1822.9"><defs><style>.cls-1,.cls-22,.cls-36{opacity:0.68;font-family:Calibri-Light, Calibri;}.cls-1{font-size:38px;}.cls-1,.cls-18,.cls-22,.cls-28,.cls-36,.cls-9{fill:#fff;}.cls-2{letter-spacing:0em;}.cls-3{letter-spacing:-0.01em;}.cls-4{letter-spacing:-0.08em;}.cls-5{letter-spacing:-0.04em;}.cls-6{letter-spacing:-0.03em;}.cls-7{opacity:0.23;}.cls-10,.cls-12,.cls-13,.cls-14,.cls-15,.cls-17,.cls-35,.cls-8{fill:none;stroke-miterlimit:10;}.cls-12,.cls-13,.cls-14,.cls-15,.cls-17,.cls-35,.cls-8{stroke:#fff;}.cls-8{stroke-width:9.35px;}.cls-10{stroke:#a8a8a8;stroke-width:7.6px;}.cls-11{fill:#a8a8a8;}.cls-12{stroke-width:7.54px;}.cls-13{stroke-width:5.2px;}.cls-14{stroke-width:3.64px;}.cls-15{stroke-width:2.73px;}.cls-16{opacity:0.76;}.cls-17{stroke-width:6.26px;}.cls-18{font-size:14.29px;}.cls-18,.cls-28{font-family:MyriadPro-Bold, Myriad Pro;font-weight:700;}.cls-19{letter-spacing:-0.1em;}.cls-20{letter-spacing:0em;}.cls-21{letter-spacing:0.01em;}.cls-22{font-size:23.88px;}.cls-23{letter-spacing:-0.02em;}.cls-24{letter-spacing:-0.01em;}.cls-25{letter-spacing:-0.01em;}.cls-26{letter-spacing:-0.02em;}.cls-27{letter-spacing:0em;}.cls-28{opacity:0.79;font-size:35.48px;}.cls-29{letter-spacing:-0.01em;}.cls-30{letter-spacing:-0.01em;}.cls-31{letter-spacing:-0.01em;}.cls-32{letter-spacing:0em;}.cls-33{letter-spacing:0em;}.cls-34{opacity:0.58;}.cls-35{stroke-width:2.81px;}.cls-36{font-size:45.67px;}.cls-37{letter-spacing:-0.01em;}.cls-38{letter-spacing:-0.08em;}.cls-39{letter-spacing:-0.04em;}</style></defs><title>ACCEDI</title><text class="cls-1" transform="translate(148.1 1091.08)"><tspan class="cls-2">A</tspan><tspan x="21.23" y="0">CCEDI</tspan></text><text class="cls-1" transform="translate(148.1 1330.56)">R<tspan class="cls-3" x="20.22" y="0">E</tspan><tspan x="38.43" y="0">GI</tspan><tspan class="cls-2" x="71.55" y="0">S</tspan><tspan x="88.56" y="0">TR</tspan><tspan class="cls-4" x="127.16" y="0">A</tspan><tspan x="145.6" y="0">TI</tspan></text><text class="cls-1" transform="translate(148.1 1564.8)">NU<tspan class="cls-3" x="48.41" y="0">O</tspan><tspan class="cls-5" x="72.9" y="0">V</tspan><tspan x="92.29" y="0">A AZIEN</tspan><tspan class="cls-3" x="213.42" y="0">D</tspan><tspan x="236.11" y="0">A</tspan></text><text class="cls-1" transform="translate(148.1 1786.8)">VISI<tspan class="cls-4" x="56.81" y="0">TA</tspan><tspan class="cls-6" x="90.66" y="0">T</tspan><tspan x="107.91" y="0">ORE</tspan></text><g class="cls-7"><rect class="cls-8" x="4.67" y="1262.08" width="89.26" height="89.26" rx="10.72" ry="10.72"/><rect class="cls-9" x="16.82" y="1276.57" width="65.9" height="8.88"/><rect class="cls-9" x="16.39" y="1293.83" width="65.9" height="8.88"/><rect class="cls-9" x="16.82" y="1310.63" width="65.9" height="8.88"/><rect class="cls-9" x="16.82" y="1327.44" width="51.16" height="8.88"/><polygon class="cls-9" points="82.6 1322.25 116.14 1288.74 124.41 1297.93 91.2 1330.56 82.6 1322.25"/><polygon class="cls-9" points="119.47 1285.5 127.66 1277.31 136.15 1286.29 128.13 1294.16 119.47 1285.5"/><polyline class="cls-9" points="74.77 1336.12 79.52 1324.99 88.01 1333.97"/></g><g class="cls-7"><path class="cls-10" d="M426.22,337.26v13.43a8.71,8.71,0,0,1-8.71,8.71H362.38a8.71,8.71,0,0,1-8.71-8.71V295.56a8.71,8.71,0,0,1,8.71-8.71h55.13a8.71,8.71,0,0,1,8.71,8.71v10.15" transform="translate(1734.54 767.95)"/><polygon class="cls-11" points="2176.56 1082.25 2140.56 1082.25 2140.56 1072.58 2113.19 1090.14 2141.02 1107.44 2140.97 1097.39 2176.56 1097.39 2176.56 1082.25"/></g><g class="cls-7"><path class="cls-12" d="M-1724,764.61c-3.2-1.72-5.81-.16-5.81,3.47v48.2a6.61,6.61,0,0,0,6.59,6.6h76.9a6.61,6.61,0,0,0,6.59-6.6v-77a6.61,6.61,0,0,0-6.59-6.59H-1655a6.66,6.66,0,0,0-6.63,6.59l-.17,33.67c0,3.63-2.65,5.19-5.84,3.47l-22.53-12.15c-3.2-1.72-5.83-.16-5.85,3.47l0,5.33c0,3.63-2.66,5.19-5.85,3.48Z" transform="translate(1734.54 767.95)"/><rect class="cls-13" x="20.9" y="1559.35" width="19.5" height="19.5" rx="4.49" ry="4.49"/><rect class="cls-13" x="54.37" y="1558.86" width="19.5" height="19.5" rx="4.49" ry="4.49"/></g><g class="cls-7"><rect class="cls-14" x="4.12" y="1753.09" width="98.48" height="52.78" rx="4.62" ry="4.62"/><path class="cls-9" d="M-1723.94,1031.35v-13.09a5.54,5.54,0,0,1,5.54-5.54h16.68a5.54,5.54,0,0,1,5.54,5.54v13.09" transform="translate(1734.54 767.95)"/><circle class="cls-9" cx="23.77" cy="1768.96" r="8.07"/><rect class="cls-9" x="45.99" y="1762.87" width="47.99" height="6.56" rx="2.73" ry="2.73"/><rect class="cls-9" x="45.36" y="1776.2" width="47.99" height="6.56" rx="2.73" ry="2.73"/><rect class="cls-9" x="45.36" y="1790.46" width="47.99" height="6.56" rx="2.73" ry="2.73"/><path class="cls-15" d="M-1698,980.78l3.44-12.93a3.83,3.83,0,0,1,3.12-2h20.3s3.23.21,4.06,2.71l3,12.21Z" transform="translate(1734.54 767.95)"/><rect class="cls-9" x="44.51" y="1739.17" width="17.64" height="4.49" rx="2.25" ry="2.25"/></g><text class="cls-1" transform="translate(100.78 858.24)">R<tspan class="cls-3" x="20.22" y="0">E</tspan><tspan x="38.43" y="0">GI</tspan><tspan class="cls-2" x="71.55" y="0">S</tspan><tspan x="88.56" y="0">TRA AZIEN</tspan><tspan class="cls-3" x="248.28" y="0">D</tspan><tspan x="270.97" y="0">A</tspan></text><g class="cls-16"><rect class="cls-9" x="5272.7" y="18.54" width="61.34" height="4.28" rx="2.14" ry="2.14"/><rect class="cls-9" x="5284.33" y="12.51" width="6.71" height="15.93" rx="3" ry="3"/><rect class="cls-9" x="5272.7" y="31.43" width="61.34" height="4.28" rx="2.14" ry="2.14"/><rect class="cls-9" x="5310.14" y="25.39" width="6.71" height="15.93" rx="3" ry="3"/><rect class="cls-9" x="5272.7" y="44.51" width="61.34" height="4.28" rx="2.14" ry="2.14"/><rect class="cls-9" x="5297.76" y="38.47" width="6.71" height="15.93" rx="3" ry="3"/><rect class="cls-17" x="5263.49" y="3.13" width="80.9" height="80.9" rx="4.46" ry="4.46"/><text class="cls-18" transform="translate(5281.68 72.65)">FI<tspan class="cls-19" x="11.6" y="0">L</tspan><tspan class="cls-20" x="17.42" y="0">T</tspan><tspan class="cls-21" x="25.25" y="0">R</tspan><tspan x="33.85" y="0">A</tspan></text></g><text class="cls-22" transform="translate(152.35 1816.49)">Accesso sen<tspan class="cls-23" x="115.34" y="0">z</tspan><tspan x="124.27" y="0">a </tspan><tspan class="cls-24" x="140.91" y="0">r</tspan><tspan x="148.79" y="0">egi</tspan><tspan class="cls-25" x="177.06" y="0">s</tspan><tspan x="186" y="0">t</tspan><tspan class="cls-26" x="193.85" y="0">r</tspan><tspan class="cls-27" x="201.61" y="0">azione</tspan></text><text class="cls-28" transform="translate(5038.02 86.47)"><tspan class="cls-29">A</tspan><tspan x="22.81" y="0">ffina ri</tspan><tspan class="cls-30" x="124.6" y="0">c</tspan><tspan x="140.21" y="0">e</tspan><tspan class="cls-31" x="158.94" y="0">r</tspan><tspan class="cls-32" x="172.14" y="0">c</tspan><tspan class="cls-33" x="188.28" y="0">a</tspan></text><g class="cls-34"><rect class="cls-9" x="-1706.22" y="-122.78" width="6.13" height="36.14" transform="translate(1064.72 2021.15) rotate(49.21)"/><circle class="cls-35" cx="60.15" cy="638.43" r="19.92"/></g><text class="cls-36" transform="translate(264.44 665.1)">CE<tspan class="cls-37" x="46.76" y="0">R</tspan><tspan x="70.62" y="0">CA PER </tspan><tspan class="cls-38" x="211.25" y="0">P</tspan><tspan x="230.87" y="0">A</tspan><tspan class="cls-37" x="256.6" y="0">R</tspan><tspan x="280.46" y="0">OLA CHI</tspan><tspan class="cls-39" x="429.38" y="0">A</tspan><tspan x="453.33" y="0">VE</tspan></text></svg>