<svg id="Livello_1" data-name="Livello 1" xmlns="http://www.w3.org/2000/svg" viewBox="0 0 5346.62 1822.9"><defs><style>.cls-1,.cls-19,.cls-34{opacity:0.68;font-family:Calibri-Light, Calibri;}.cls-1{font-size:38px;}.cls-1,.cls-11,.cls-15,.cls-19,.cls-25,.cls-34{fill:#fff;}.cls-2{letter-spacing:0em;}.cls-3{letter-spacing:-0.01em;}.cls-4{letter-spacing:-0.04em;}.cls-5{letter-spacing:-0.08em;}.cls-6{letter-spacing:-0.03em;}.cls-7{opacity:0.23;}.cls-10,.cls-12,.cls-14,.cls-33,.cls-8,.cls-9{fill:none;stroke-miterlimit:10;}.cls-10,.cls-12,.cls-14,.cls-8,.cls-9{stroke:#fff;}.cls-8{stroke-width:7.54px;}.cls-9{stroke-width:5.2px;}.cls-10{stroke-width:3.64px;}.cls-12{stroke-width:2.73px;}.cls-13{opacity:0.76;}.cls-14{stroke-width:6.26px;}.cls-15{font-size:14.29px;}.cls-15,.cls-25{font-family:MyriadPro-Bold, Myriad Pro;font-weight:700;}.cls-16{letter-spacing:-0.1em;}.cls-17{letter-spacing:0em;}.cls-18{letter-spacing:0.01em;}.cls-19{font-size:23.88px;}.cls-20{letter-spacing:-0.02em;}.cls-21{letter-spacing:-0.01em;}.cls-22{letter-spacing:-0.01em;}.cls-23{letter-spacing:-0.02em;}.cls-24{letter-spacing:0em;}.cls-25{opacity:0.79;font-size:35.48px;}.cls-26{letter-spacing:-0.01em;}.cls-27{letter-spacing:-0.01em;}.cls-28{letter-spacing:-0.01em;}.cls-29{letter-spacing:0em;}.cls-30{letter-spacing:0em;}.cls-31{opacity:0.58;}.cls-32{fill:#a8a8a8;}.cls-33{stroke:#bebebe;stroke-width:2.81px;}.cls-34{font-size:45.67px;}.cls-35{letter-spacing:-0.01em;}.cls-36{letter-spacing:-0.08em;}.cls-37{letter-spacing:-0.04em;}</style></defs><title>LENTE</title><text class="cls-1" transform="translate(147.2 1091.08)"><tspan class="cls-2">A</tspan><tspan x="21.23" y="0">CCEDI</tspan></text><text class="cls-1" transform="translate(147.2 1564.8)">NU<tspan class="cls-3" x="48.41" y="0">O</tspan><tspan class="cls-4" x="72.9" y="0">V</tspan><tspan x="92.29" y="0">A AZIEN</tspan><tspan class="cls-3" x="213.42" y="0">D</tspan><tspan x="236.11" y="0">A</tspan></text><text class="cls-1" transform="translate(147.2 1786.8)">VISI<tspan class="cls-5" x="56.81" y="0">TA</tspan><tspan class="cls-6" x="90.66" y="0">T</tspan><tspan x="107.91" y="0">ORE</tspan></text><g class="cls-7"><path class="cls-8" d="M-1724,764.61c-3.2-1.72-5.81-.16-5.81,3.47v48.2a6.61,6.61,0,0,0,6.59,6.6h76.9a6.61,6.61,0,0,0,6.59-6.6v-77a6.61,6.61,0,0,0-6.59-6.59H-1655a6.66,6.66,0,0,0-6.63,6.59l-.17,33.67c0,3.63-2.65,5.19-5.84,3.47l-22.53-12.15c-3.2-1.72-5.83-.16-5.85,3.47l0,5.33c0,3.63-2.66,5.19-5.85,3.48Z" transform="translate(1733.63 767.95)"/><rect class="cls-9" x="19.99" y="1559.35" width="19.5" height="19.5" rx="4.49" ry="4.49"/><rect class="cls-9" x="53.47" y="1558.86" width="19.5" height="19.5" rx="4.49" ry="4.49"/></g><g class="cls-7"><rect class="cls-10" x="3.22" y="1753.09" width="98.48" height="52.78" rx="4.62" ry="4.62"/><path class="cls-11" d="M-1723.94,1031.35v-13.09a5.54,5.54,0,0,1,5.54-5.54h16.68a5.54,5.54,0,0,1,5.54,5.54v13.09" transform="translate(1733.63 767.95)"/><circle class="cls-11" cx="22.86" cy="1768.96" r="8.07"/><rect class="cls-11" x="45.09" y="1762.87" width="47.99" height="6.56" rx="2.73" ry="2.73"/><rect class="cls-11" x="44.45" y="1776.2" width="47.99" height="6.56" rx="2.73" ry="2.73"/><rect class="cls-11" x="44.45" y="1790.46" width="47.99" height="6.56" rx="2.73" ry="2.73"/><path class="cls-12" d="M-1698,980.78l3.44-12.93a3.83,3.83,0,0,1,3.12-2h20.3s3.23.21,4.06,2.71l3,12.21Z" transform="translate(1733.63 767.95)"/><rect class="cls-11" x="43.6" y="1739.17" width="17.64" height="4.49" rx="2.25" ry="2.25"/></g><text class="cls-1" transform="translate(99.87 858.24)">R<tspan class="cls-3" x="20.22" y="0">E</tspan><tspan x="38.43" y="0">GI</tspan><tspan class="cls-2" x="71.55" y="0">S</tspan><tspan x="88.56" y="0">TRA AZIEN</tspan><tspan class="cls-3" x="248.28" y="0">D</tspan><tspan x="270.97" y="0">A</tspan></text><g class="cls-13"><rect class="cls-11" x="5271.8" y="18.54" width="61.34" height="4.28" rx="2.14" ry="2.14"/><rect class="cls-11" x="5283.43" y="12.51" width="6.71" height="15.93" rx="3" ry="3"/><rect class="cls-11" x="5271.8" y="31.43" width="61.34" height="4.28" rx="2.14" ry="2.14"/><rect class="cls-11" x="5309.23" y="25.39" width="6.71" height="15.93" rx="3" ry="3"/><rect class="cls-11" x="5271.8" y="44.51" width="61.34" height="4.28" rx="2.14" ry="2.14"/><rect class="cls-11" x="5296.86" y="38.47" width="6.71" height="15.93" rx="3" ry="3"/><rect class="cls-14" x="5262.58" y="3.13" width="80.9" height="80.9" rx="4.46" ry="4.46"/><text class="cls-15" transform="translate(5280.78 72.65)">FI<tspan class="cls-16" x="11.6" y="0">L</tspan><tspan class="cls-17" x="17.42" y="0">T</tspan><tspan class="cls-18" x="25.25" y="0">R</tspan><tspan x="33.85" y="0">A</tspan></text></g><text class="cls-19" transform="translate(151.44 1816.49)">Accesso sen<tspan class="cls-20" x="115.34" y="0">z</tspan><tspan x="124.27" y="0">a </tspan><tspan class="cls-21" x="140.91" y="0">r</tspan><tspan x="148.79" y="0">egi</tspan><tspan class="cls-22" x="177.06" y="0">s</tspan><tspan x="186" y="0">t</tspan><tspan class="cls-23" x="193.85" y="0">r</tspan><tspan class="cls-24" x="201.61" y="0">azione</tspan></text><text class="cls-25" transform="translate(5037.11 86.47)"><tspan class="cls-26">A</tspan><tspan x="22.81" y="0">ffina ri</tspan><tspan class="cls-27" x="124.6" y="0">c</tspan><tspan x="140.21" y="0">e</tspan><tspan class="cls-28" x="158.94" y="0">r</tspan><tspan class="cls-29" x="172.14" y="0">c</tspan><tspan class="cls-30" x="188.28" y="0">a</tspan></text><g class="cls-31"><rect class="cls-32" x="328.58" y="323.26" width="6.13" height="36.14" transform="translate(2107.06 635.21) rotate(49.21)"/><circle class="cls-33" cx="2094.04" cy="1084.47" r="19.92"/></g><text class="cls-34" transform="translate(263.54 665.1)">CE<tspan class="cls-35" x="46.76" y="0">R</tspan><tspan x="70.62" y="0">CA PER </tspan><tspan class="cls-36" x="211.25" y="0">P</tspan><tspan x="230.87" y="0">A</tspan><tspan class="cls-35" x="256.6" y="0">R</tspan><tspan x="280.46" y="0">OLA CHI</tspan><tspan class="cls-37" x="429.38" y="0">A</tspan><tspan x="453.33" y="0">VE</tspan></text></svg>

