<svg id="Livello_1" data-name="Livello 1" xmlns="http://www.w3.org/2000/svg" viewBox="0 0 5246.74 1822.9"><defs><style>.cls-1,.cls-19,.cls-31{opacity:0.68;font-family:Calibri-Light, Calibri;}.cls-1{font-size:38px;}.cls-1,.cls-13,.cls-15,.cls-19,.cls-25,.cls-31{fill:#fff;}.cls-2{letter-spacing:0em;}.cls-3{letter-spacing:-0.01em;}.cls-4{letter-spacing:-0.04em;}.cls-5{letter-spacing:-0.08em;}.cls-6{letter-spacing:-0.03em;}.cls-7{opacity:0.23;}.cls-10,.cls-14,.cls-8{fill:none;}.cls-10,.cls-8,.cls-9{stroke:#bebebe;}.cls-10,.cls-14,.cls-8,.cls-9{stroke-miterlimit:10;}.cls-8{stroke-width:3.64px;}.cls-9{fill:#bebebe;}.cls-10{stroke-width:2.73px;}.cls-11{fill:silver;}.cls-12{opacity:0.76;}.cls-14{stroke:#fff;stroke-width:6.26px;}.cls-15{font-size:14.29px;}.cls-15,.cls-25{font-family:MyriadPro-Bold, Myriad Pro;font-weight:700;}.cls-16{letter-spacing:-0.1em;}.cls-17{letter-spacing:0em;}.cls-18{letter-spacing:0.01em;}.cls-19{font-size:23.88px;}.cls-20{letter-spacing:-0.02em;}.cls-21{letter-spacing:-0.01em;}.cls-22{letter-spacing:-0.01em;}.cls-23{letter-spacing:-0.02em;}.cls-24{letter-spacing:0em;}.cls-25{opacity:0.79;font-size:35.48px;}.cls-26{letter-spacing:-0.01em;}.cls-27{letter-spacing:-0.01em;}.cls-28{letter-spacing:-0.01em;}.cls-29{letter-spacing:0em;}.cls-30{letter-spacing:0em;}.cls-31{font-size:45.67px;}.cls-32{letter-spacing:-0.01em;}.cls-33{letter-spacing:-0.08em;}.cls-34{letter-spacing:-0.04em;}</style></defs><title>VISITATORE</title><text class="cls-1" transform="translate(47.33 1091.08)"><tspan class="cls-2">A</tspan><tspan x="21.23" y="0">CCEDI</tspan></text><text class="cls-1" transform="translate(47.33 1564.8)">NU<tspan class="cls-3" x="48.41" y="0">O</tspan><tspan class="cls-4" x="72.9" y="0">V</tspan><tspan x="92.29" y="0">A AZIEN</tspan><tspan class="cls-3" x="213.42" y="0">D</tspan><tspan x="236.11" y="0">A</tspan></text><text class="cls-1" transform="translate(47.33 1786.8)">VISI<tspan class="cls-5" x="56.81" y="0">TA</tspan><tspan class="cls-6" x="90.66" y="0">T</tspan><tspan x="107.91" y="0">ORE</tspan></text><g class="cls-7"><rect class="cls-8" x="1968.52" y="1084.39" width="98.48" height="52.78" rx="4.62" ry="4.62"/><path class="cls-9" d="M369,362.66v-13.1a5.54,5.54,0,0,0-5.54-5.54H346.78a5.54,5.54,0,0,0-5.54,5.54v13.1Z" transform="translate(1633.76 767.95)"/><circle class="cls-9" cx="1988.17" cy="1100.27" r="8.07"/><rect class="cls-9" x="2010.39" y="1094.18" width="47.99" height="6.56" rx="2.73" ry="2.73"/><rect class="cls-9" x="2009.76" y="1107.5" width="47.99" height="6.56" rx="2.73" ry="2.73"/><rect class="cls-9" x="2009.76" y="1121.77" width="47.99" height="6.56" rx="2.73" ry="2.73"/><path class="cls-10" d="M367.16,312.08l3.43-12.92a3.84,3.84,0,0,1,3.13-2H394s3.22.21,4.06,2.7l3,12.21Z" transform="translate(1633.76 767.95)"/><rect class="cls-11" x="2008.9" y="1070.47" width="17.64" height="4.49" rx="2.25" ry="2.25"/></g><text class="cls-1" transform="translate(0 858.24)">R<tspan class="cls-3" x="20.22" y="0">E</tspan><tspan x="38.43" y="0">GI</tspan><tspan class="cls-2" x="71.55" y="0">S</tspan><tspan x="88.56" y="0">TRA AZIEN</tspan><tspan class="cls-3" x="248.28" y="0">D</tspan><tspan x="270.97" y="0">A</tspan></text><g class="cls-12"><rect class="cls-13" x="5171.92" y="18.54" width="61.34" height="4.28" rx="2.14" ry="2.14"/><rect class="cls-13" x="5183.56" y="12.51" width="6.71" height="15.93" rx="3" ry="3"/><rect class="cls-13" x="5171.92" y="31.43" width="61.34" height="4.28" rx="2.14" ry="2.14"/><rect class="cls-13" x="5209.36" y="25.39" width="6.71" height="15.93" rx="3" ry="3"/><rect class="cls-13" x="5171.92" y="44.51" width="61.34" height="4.28" rx="2.14" ry="2.14"/><rect class="cls-13" x="5196.98" y="38.47" width="6.71" height="15.93" rx="3" ry="3"/><rect class="cls-14" x="5162.71" y="3.13" width="80.9" height="80.9" rx="4.46" ry="4.46"/><text class="cls-15" transform="translate(5180.9 72.65)">FI<tspan class="cls-16" x="11.6" y="0">L</tspan><tspan class="cls-17" x="17.42" y="0">T</tspan><tspan class="cls-18" x="25.25" y="0">R</tspan><tspan x="33.85" y="0">A</tspan></text></g><text class="cls-19" transform="translate(51.57 1816.49)">Accesso sen<tspan class="cls-20" x="115.34" y="0">z</tspan><tspan x="124.27" y="0">a </tspan><tspan class="cls-21" x="140.91" y="0">r</tspan><tspan x="148.79" y="0">egi</tspan><tspan class="cls-22" x="177.06" y="0">s</tspan><tspan x="186" y="0">t</tspan><tspan class="cls-23" x="193.85" y="0">r</tspan><tspan class="cls-24" x="201.61" y="0">azione</tspan></text><text class="cls-25" transform="translate(4937.24 86.47)"><tspan class="cls-26">A</tspan><tspan x="22.81" y="0">ffina ri</tspan><tspan class="cls-27" x="124.6" y="0">c</tspan><tspan x="140.21" y="0">e</tspan><tspan class="cls-28" x="158.94" y="0">r</tspan><tspan class="cls-29" x="172.14" y="0">c</tspan><tspan class="cls-30" x="188.28" y="0">a</tspan></text><text class="cls-31" transform="translate(163.67 665.1)">CE<tspan class="cls-32" x="46.76" y="0">R</tspan><tspan x="70.62" y="0">CA PER </tspan><tspan class="cls-33" x="211.25" y="0">P</tspan><tspan x="230.87" y="0">A</tspan><tspan class="cls-32" x="256.6" y="0">R</tspan><tspan x="280.46" y="0">OLA CHI</tspan><tspan class="cls-34" x="429.38" y="0">A</tspan><tspan x="453.33" y="0">VE</tspan></text></svg>